<svg xmlns="http://www.w3.org/2000/svg" xmlns:xlink="http://www.w3.org/1999/xlink" width="500" zoomAndPan="magnify" viewBox="0 0 375 374.999991" height="500" preserveAspectRatio="xMidYMid meet" version="1.0"><defs><g/><clipPath id="36f18bb339"><path d="M 76.777344 73 L 298.027344 73 L 298.027344 302 L 76.777344 302 Z M 76.777344 73 " clip-rule="nonzero"/></clipPath></defs><rect x="-37.5" width="450" fill="#ffffff" y="-37.499999" height="449.999989" fill-opacity="1"/><rect x="-37.5" width="450" fill="#ffffff" y="-37.499999" height="449.999989" fill-opacity="1"/><g clip-path="url(#36f18bb339)"><path fill="#3d3b3a" d="M 159.589844 76.703125 C 161.382812 76.253906 163.183594 75.847656 164.996094 75.484375 C 166.808594 75.121094 168.628906 74.804688 170.453125 74.53125 C 172.28125 74.257812 174.113281 74.027344 175.953125 73.84375 C 177.792969 73.65625 179.632812 73.519531 181.480469 73.421875 C 183.324219 73.328125 185.171875 73.277344 187.019531 73.273438 C 188.867188 73.265625 190.714844 73.308594 192.558594 73.390625 C 194.40625 73.476562 196.246094 73.605469 198.085938 73.78125 C 199.925781 73.953125 201.761719 74.171875 203.589844 74.4375 C 205.417969 74.699219 207.238281 75.007812 209.054688 75.359375 C 210.867188 75.710938 212.671875 76.105469 214.46875 76.546875 C 216.261719 76.984375 218.046875 77.46875 219.816406 77.996094 C 221.585938 78.519531 223.34375 79.089844 225.089844 79.703125 C 226.832031 80.3125 228.558594 80.96875 230.273438 81.664062 C 231.984375 82.359375 233.679688 83.097656 235.355469 83.875 C 237.03125 84.652344 238.6875 85.472656 240.324219 86.332031 C 241.960938 87.191406 243.574219 88.089844 245.167969 89.023438 C 246.761719 89.960938 248.328125 90.9375 249.875 91.953125 C 251.421875 92.964844 252.941406 94.015625 254.433594 95.105469 C 255.929688 96.191406 257.398438 97.316406 258.835938 98.472656 C 260.277344 99.632812 261.6875 100.824219 263.070312 102.054688 C 264.453125 103.28125 265.804688 104.542969 267.125 105.835938 C 268.445312 107.128906 269.734375 108.453125 270.988281 109.808594 C 272.246094 111.164062 273.46875 112.550781 274.65625 113.964844 C 275.847656 115.382812 277 116.824219 278.121094 118.296875 C 279.238281 119.769531 280.324219 121.265625 281.371094 122.789062 C 282.414062 124.3125 283.425781 125.863281 284.394531 127.4375 C 285.367188 129.007812 286.300781 130.605469 287.191406 132.222656 C 288.085938 133.84375 288.941406 135.480469 289.753906 137.140625 C 290.570312 138.800781 291.34375 140.480469 292.074219 142.179688 C 292.808594 143.878906 293.5 145.59375 294.148438 147.324219 C 294.796875 149.054688 295.40625 150.800781 295.96875 152.5625 C 296.535156 154.324219 297.054688 156.097656 297.535156 157.882812 C 297.710938 158.542969 297.886719 159.214844 298.054688 159.898438 L 296.308594 160.507812 C 296.132812 159.789062 295.949219 159.074219 295.757812 158.355469 C 295.28125 156.585938 294.765625 154.828125 294.207031 153.082031 C 293.644531 151.339844 293.042969 149.609375 292.398438 147.890625 C 291.753906 146.175781 291.070312 144.476562 290.339844 142.796875 C 289.613281 141.113281 288.84375 139.449219 288.035156 137.804688 C 287.226562 136.160156 286.378906 134.539062 285.488281 132.933594 C 284.601562 131.332031 283.675781 129.75 282.707031 128.195312 C 281.742188 126.636719 280.738281 125.105469 279.699219 123.59375 C 278.660156 122.085938 277.582031 120.605469 276.46875 119.148438 C 275.355469 117.695312 274.207031 116.265625 273.023438 114.867188 C 271.839844 113.46875 270.625 112.097656 269.375 110.757812 C 268.125 109.421875 266.84375 108.113281 265.527344 106.835938 C 264.214844 105.558594 262.871094 104.316406 261.496094 103.105469 C 260.121094 101.894531 258.714844 100.714844 257.285156 99.574219 C 255.851562 98.433594 254.390625 97.324219 252.90625 96.253906 C 251.417969 95.183594 249.90625 94.152344 248.371094 93.15625 C 246.832031 92.160156 245.273438 91.199219 243.6875 90.28125 C 242.105469 89.359375 240.5 88.480469 238.871094 87.636719 C 237.242188 86.796875 235.597656 85.996094 233.929688 85.234375 C 232.265625 84.476562 230.582031 83.753906 228.878906 83.078125 C 227.179688 82.398438 225.460938 81.765625 223.730469 81.167969 C 221.996094 80.574219 220.25 80.023438 218.492188 79.515625 C 216.730469 79.007812 214.960938 78.542969 213.179688 78.121094 C 211.394531 77.699219 209.605469 77.324219 207.804688 76.988281 C 206.003906 76.65625 204.195312 76.367188 202.378906 76.121094 C 200.566406 75.875 198.746094 75.675781 196.921875 75.519531 C 195.09375 75.363281 193.269531 75.25 191.4375 75.183594 C 189.609375 75.117188 187.777344 75.097656 185.945312 75.121094 C 184.113281 75.144531 182.285156 75.210938 180.457031 75.324219 C 178.628906 75.4375 176.804688 75.59375 174.984375 75.796875 C 173.164062 76 171.351562 76.246094 169.542969 76.539062 C 167.734375 76.828125 165.933594 77.164062 164.144531 77.542969 C 162.351562 77.925781 160.570312 78.347656 158.800781 78.8125 C 159.074219 78.117188 159.34375 77.421875 159.589844 76.707031 Z M 78.523438 214.738281 C 78.671875 215.324219 78.816406 215.910156 78.976562 216.496094 C 79.453125 218.273438 79.96875 220.035156 80.53125 221.785156 C 81.09375 223.535156 81.699219 225.269531 82.34375 226.988281 C 82.992188 228.707031 83.679688 230.410156 84.410156 232.097656 C 85.140625 233.78125 85.910156 235.449219 86.722656 237.097656 C 87.535156 238.746094 88.386719 240.375 89.277344 241.980469 C 90.171875 243.585938 91.101562 245.167969 92.070312 246.730469 C 93.039062 248.289062 94.046875 249.828125 95.089844 251.335938 C 96.136719 252.847656 97.21875 254.332031 98.335938 255.789062 C 99.453125 257.25 100.605469 258.679688 101.792969 260.078125 C 102.980469 261.480469 104.199219 262.851562 105.457031 264.195312 C 106.710938 265.535156 107.996094 266.84375 109.316406 268.125 C 110.636719 269.402344 111.984375 270.648438 113.367188 271.859375 C 114.746094 273.070312 116.15625 274.246094 117.59375 275.390625 C 119.03125 276.53125 120.496094 277.640625 121.988281 278.710938 C 123.480469 279.78125 124.996094 280.8125 126.539062 281.808594 C 128.082031 282.804688 129.648438 283.765625 131.238281 284.683594 C 132.828125 285.601562 134.441406 286.480469 136.074219 287.320312 C 137.707031 288.164062 139.359375 288.960938 141.03125 289.71875 C 142.703125 290.480469 144.390625 291.195312 146.101562 291.871094 C 147.808594 292.546875 149.53125 293.183594 151.269531 293.773438 C 153.007812 294.363281 154.757812 294.914062 156.523438 295.417969 C 158.289062 295.921875 160.066406 296.382812 161.851562 296.800781 C 163.640625 297.21875 165.4375 297.59375 167.246094 297.921875 C 169.050781 298.253906 170.863281 298.539062 172.683594 298.777344 C 174.503906 299.019531 176.328125 299.214844 178.160156 299.367188 C 179.988281 299.515625 181.820312 299.621094 183.65625 299.683594 C 185.492188 299.742188 187.328125 299.757812 189.164062 299.730469 C 190.996094 299.699219 192.832031 299.625 194.664062 299.507812 C 196.496094 299.386719 198.324219 299.222656 200.148438 299.015625 C 201.972656 298.804688 203.789062 298.550781 205.601562 298.253906 C 207.414062 297.953125 209.214844 297.613281 211.011719 297.222656 C 212.804688 296.835938 214.589844 296.40625 216.363281 295.929688 C 216.078125 296.628906 215.800781 297.332031 215.542969 298.042969 C 213.75 298.5 211.945312 298.914062 210.128906 299.28125 C 208.316406 299.652344 206.492188 299.976562 204.660156 300.257812 C 202.832031 300.539062 200.996094 300.773438 199.152344 300.964844 C 197.308594 301.15625 195.464844 301.304688 193.613281 301.40625 C 191.765625 301.507812 189.914062 301.5625 188.0625 301.574219 C 186.210938 301.585938 184.359375 301.550781 182.511719 301.46875 C 180.660156 301.390625 178.8125 301.265625 176.96875 301.097656 C 175.125 300.929688 173.285156 300.714844 171.449219 300.457031 C 169.617188 300.195312 167.789062 299.894531 165.972656 299.546875 C 164.152344 299.199219 162.34375 298.804688 160.542969 298.371094 C 158.742188 297.933594 156.953125 297.453125 155.179688 296.929688 C 153.402344 296.40625 151.636719 295.839844 149.890625 295.230469 C 148.140625 294.621094 146.40625 293.96875 144.691406 293.277344 C 142.972656 292.582031 141.273438 291.847656 139.589844 291.070312 C 137.910156 290.292969 136.246094 289.476562 134.605469 288.621094 C 132.964844 287.761719 131.34375 286.863281 129.746094 285.929688 C 128.148438 284.992188 126.574219 284.015625 125.023438 283.003906 C 123.472656 281.992188 121.945312 280.941406 120.445312 279.851562 C 118.945312 278.765625 117.472656 277.640625 116.03125 276.480469 C 114.585938 275.324219 113.167969 274.128906 111.78125 272.898438 C 110.394531 271.671875 109.039062 270.410156 107.714844 269.117188 C 106.386719 267.820312 105.09375 266.496094 103.832031 265.136719 C 102.570312 263.78125 101.34375 262.390625 100.152344 260.976562 C 98.957031 259.558594 97.800781 258.113281 96.675781 256.636719 C 95.554688 255.164062 94.464844 253.664062 93.417969 252.136719 C 92.367188 250.609375 91.355469 249.058594 90.378906 247.480469 C 89.40625 245.90625 88.46875 244.308594 87.570312 242.683594 C 86.675781 241.0625 85.820312 239.421875 85 237.757812 C 84.183594 236.09375 83.410156 234.410156 82.671875 232.710938 C 81.9375 231.007812 81.246094 229.289062 80.59375 227.554688 C 79.941406 225.820312 79.332031 224.070312 78.765625 222.304688 C 78.203125 220.539062 77.679688 218.761719 77.199219 216.972656 C 77.054688 216.433594 76.917969 215.890625 76.777344 215.351562 Z M 78.523438 214.738281 " fill-opacity="1" fill-rule="evenodd"/></g><g fill="#000000" fill-opacity="1"><g transform="translate(60.173493, 186.745857)"><g><path d="M 18 -16.15625 L 18 0 L 14.9375 0 L 14.9375 -7.40625 L 9.875 -0.21875 L 9.828125 -0.21875 L 4.953125 -6.9375 L 4.953125 0 L 2 0 L 2 -16.15625 L 2.03125 -16.15625 L 9.890625 -5 L 17.953125 -16.15625 Z M 18 -16.15625 "/></g></g></g><g fill="#000000" fill-opacity="1"><g transform="translate(97.034452, 186.745857)"><g><path d="M 6.203125 -2.953125 L 14.15625 -2.953125 L 14.15625 0 L 0.953125 0 L 8.84375 -12.578125 L 4.109375 -12.578125 C 3.628906 -12.578125 3.164062 -12.726562 2.71875 -13.03125 C 2.28125 -13.332031 2.0625 -13.6875 2.0625 -14.09375 L 2.0625 -16.3125 L 4.875 -16.3125 L 4.875 -16.015625 C 4.875 -15.773438 4.898438 -15.628906 4.953125 -15.578125 C 5.015625 -15.523438 5.109375 -15.503906 5.234375 -15.515625 C 5.359375 -15.523438 5.460938 -15.53125 5.546875 -15.53125 L 14.171875 -15.53125 Z M 6.203125 -2.953125 "/></g></g></g><g fill="#000000" fill-opacity="1"><g transform="translate(129.130881, 186.745857)"><g><path d="M 5.0625 -15.53125 L 5.0625 0 L 2 0 L 2 -15.53125 Z M 5.0625 -15.53125 "/></g></g></g><g fill="#000000" fill-opacity="1"><g transform="translate(153.068589, 186.745857)"><g><path d="M 15.984375 -15.53125 L 15.984375 0.640625 L 15.90625 0.640625 L 5.046875 -9.171875 L 5.109375 0 L 2 0 L 2 -16.140625 L 2.125 -16.140625 L 12.96875 -6.1875 L 12.90625 -15.53125 Z M 15.984375 -15.53125 "/></g></g></g><g fill="#000000" fill-opacity="1"><g transform="translate(187.926765, 186.745857)"><g><path d="M 14.59375 -1.5625 C 14.351562 -1.3125 13.925781 -1.046875 13.3125 -0.765625 C 12.707031 -0.492188 12.035156 -0.269531 11.296875 -0.09375 C 10.554688 0.0820312 9.882812 0.171875 9.28125 0.171875 C 7.632812 0.171875 6.1875 -0.144531 4.9375 -0.78125 C 3.695312 -1.425781 2.738281 -2.3125 2.0625 -3.4375 C 1.394531 -4.570312 1.0625 -5.863281 1.0625 -7.3125 C 1.0625 -9.132812 1.414062 -10.671875 2.125 -11.921875 C 2.84375 -13.179688 3.804688 -14.125 5.015625 -14.75 C 6.222656 -15.375 7.5625 -15.6875 9.03125 -15.6875 C 9.96875 -15.6875 10.851562 -15.582031 11.6875 -15.375 C 12.519531 -15.164062 13.25 -14.894531 13.875 -14.5625 L 12.890625 -11.703125 C 12.484375 -11.929688 11.921875 -12.140625 11.203125 -12.328125 C 10.492188 -12.515625 9.898438 -12.609375 9.421875 -12.609375 C 7.734375 -12.609375 6.441406 -12.1875 5.546875 -11.34375 C 4.660156 -10.5 4.21875 -9.25 4.21875 -7.59375 C 4.21875 -6.632812 4.4375 -5.800781 4.875 -5.09375 C 5.3125 -4.382812 5.921875 -3.835938 6.703125 -3.453125 C 7.484375 -3.078125 8.367188 -2.890625 9.359375 -2.890625 C 10.316406 -2.890625 11.03125 -3.023438 11.5 -3.296875 L 11.5 -5.171875 L 8.8125 -5.171875 L 8.8125 -8.125 L 14.59375 -8.125 Z M 14.59375 -1.5625 "/></g></g></g><g fill="#000000" fill-opacity="1"><g transform="translate(220.866475, 186.745857)"><g><path d="M 9.6875 -3.03125 L 4.53125 -3.03125 L 3.265625 0 L 0.25 0 L 7.25 -16.140625 L 7.421875 -16.140625 L 14.421875 0 L 10.890625 0 Z M 8.671875 -5.609375 L 7.171875 -9.390625 L 5.609375 -5.609375 Z M 8.671875 -5.609375 "/></g></g></g><g fill="#000000" fill-opacity="1"><g transform="translate(252.414767, 186.745857)"><g><path d="M 0.3125 -1.515625 C 0.3125 -1.941406 0.46875 -2.304688 0.78125 -2.609375 C 1.09375 -2.910156 1.441406 -3.0625 1.828125 -3.0625 C 2.203125 -3.0625 2.539062 -2.910156 2.84375 -2.609375 C 3.15625 -2.304688 3.3125 -1.941406 3.3125 -1.515625 C 3.3125 -1.078125 3.160156 -0.710938 2.859375 -0.421875 C 2.554688 -0.140625 2.210938 0 1.828125 0 C 1.441406 0 1.09375 -0.140625 0.78125 -0.421875 C 0.46875 -0.703125 0.3125 -1.066406 0.3125 -1.515625 Z M 0.3125 -1.515625 "/></g></g></g><g fill="#000000" fill-opacity="1"><g transform="translate(272.916124, 186.745857)"><g><path d="M 5.0625 -15.53125 L 5.0625 0 L 2 0 L 2 -15.53125 Z M 5.0625 -15.53125 "/></g></g></g><g fill="#000000" fill-opacity="1"><g transform="translate(296.85382, 186.745857)"><g><path d="M 1.0625 -7.734375 C 1.0625 -9.140625 1.414062 -10.453125 2.125 -11.671875 C 2.832031 -12.898438 3.789062 -13.875 5 -14.59375 C 6.21875 -15.320312 7.539062 -15.6875 8.96875 -15.6875 C 10.382812 -15.6875 11.703125 -15.320312 12.921875 -14.59375 C 14.140625 -13.875 15.109375 -12.898438 15.828125 -11.671875 C 16.554688 -10.453125 16.921875 -9.140625 16.921875 -7.734375 C 16.921875 -6.304688 16.554688 -4.988281 15.828125 -3.78125 C 15.109375 -2.570312 14.140625 -1.609375 12.921875 -0.890625 C 11.703125 -0.179688 10.382812 0.171875 8.96875 0.171875 C 7.53125 0.171875 6.207031 -0.179688 5 -0.890625 C 3.789062 -1.609375 2.832031 -2.570312 2.125 -3.78125 C 1.414062 -4.988281 1.0625 -6.304688 1.0625 -7.734375 Z M 4.21875 -7.734375 C 4.21875 -6.835938 4.429688 -6.007812 4.859375 -5.25 C 5.285156 -4.488281 5.867188 -3.882812 6.609375 -3.4375 C 7.347656 -3 8.171875 -2.78125 9.078125 -2.78125 C 9.941406 -2.78125 10.734375 -3 11.453125 -3.4375 C 12.171875 -3.882812 12.734375 -4.484375 13.140625 -5.234375 C 13.546875 -5.992188 13.75 -6.828125 13.75 -7.734375 C 13.75 -8.671875 13.535156 -9.515625 13.109375 -10.265625 C 12.691406 -11.023438 12.117188 -11.625 11.390625 -12.0625 C 10.671875 -12.507812 9.867188 -12.734375 8.984375 -12.734375 C 8.097656 -12.734375 7.289062 -12.507812 6.5625 -12.0625 C 5.84375 -11.625 5.269531 -11.023438 4.84375 -10.265625 C 4.425781 -9.515625 4.21875 -8.671875 4.21875 -7.734375 Z M 4.21875 -7.734375 "/></g></g></g><g fill="#000000" fill-opacity="1"><g transform="translate(117.010553, 226.574878)"><g><path d="M 7.515625 -8.03125 L 4.5 -2.609375 L 4.5 0 L 3.21875 0 L 3.21875 -2.609375 L 0.25 -8.03125 L 1.828125 -8.03125 L 3.90625 -4.078125 L 5.9375 -8.03125 Z M 7.515625 -8.03125 "/></g></g></g><g fill="#000000" fill-opacity="1"><g transform="translate(129.189083, 226.574878)"><g><path d="M 0.609375 -4 C 0.609375 -4.738281 0.789062 -5.421875 1.15625 -6.046875 C 1.519531 -6.679688 2.015625 -7.1875 2.640625 -7.5625 C 3.273438 -7.9375 3.960938 -8.125 4.703125 -8.125 C 5.441406 -8.125 6.125 -7.9375 6.75 -7.5625 C 7.382812 -7.1875 7.890625 -6.679688 8.265625 -6.046875 C 8.640625 -5.410156 8.828125 -4.726562 8.828125 -4 C 8.828125 -3.257812 8.640625 -2.578125 8.265625 -1.953125 C 7.890625 -1.328125 7.382812 -0.828125 6.75 -0.453125 C 6.125 -0.0859375 5.441406 0.09375 4.703125 0.09375 C 3.960938 0.09375 3.273438 -0.0859375 2.640625 -0.453125 C 2.015625 -0.816406 1.519531 -1.3125 1.15625 -1.9375 C 0.789062 -2.5625 0.609375 -3.25 0.609375 -4 Z M 1.9375 -4 C 1.9375 -3.476562 2.0625 -3 2.3125 -2.5625 C 2.5625 -2.132812 2.898438 -1.789062 3.328125 -1.53125 C 3.753906 -1.269531 4.226562 -1.140625 4.75 -1.140625 C 5.25 -1.140625 5.707031 -1.265625 6.125 -1.515625 C 6.550781 -1.773438 6.882812 -2.125 7.125 -2.5625 C 7.375 -3 7.5 -3.476562 7.5 -4 C 7.5 -4.519531 7.375 -5 7.125 -5.4375 C 6.875 -5.882812 6.535156 -6.238281 6.109375 -6.5 C 5.679688 -6.757812 5.210938 -6.890625 4.703125 -6.890625 C 4.191406 -6.890625 3.722656 -6.757812 3.296875 -6.5 C 2.878906 -6.238281 2.546875 -5.882812 2.296875 -5.4375 C 2.054688 -5 1.9375 -4.519531 1.9375 -4 Z M 1.9375 -4 "/></g></g></g><g fill="#000000" fill-opacity="1"><g transform="translate(143.033339, 226.574878)"><g><path d="M 2.265625 -2.890625 C 2.265625 -2.578125 2.34375 -2.285156 2.5 -2.015625 C 2.664062 -1.753906 2.882812 -1.546875 3.15625 -1.390625 C 3.4375 -1.234375 3.742188 -1.15625 4.078125 -1.15625 C 4.421875 -1.15625 4.734375 -1.234375 5.015625 -1.390625 C 5.304688 -1.546875 5.53125 -1.753906 5.6875 -2.015625 C 5.851562 -2.285156 5.9375 -2.578125 5.9375 -2.890625 L 5.9375 -8.03125 L 7.203125 -8.03125 L 7.203125 -2.859375 C 7.203125 -2.285156 7.0625 -1.773438 6.78125 -1.328125 C 6.507812 -0.878906 6.132812 -0.53125 5.65625 -0.28125 C 5.175781 -0.03125 4.648438 0.09375 4.078125 0.09375 C 3.503906 0.09375 2.976562 -0.03125 2.5 -0.28125 C 2.03125 -0.53125 1.660156 -0.878906 1.390625 -1.328125 C 1.117188 -1.773438 0.984375 -2.285156 0.984375 -2.859375 L 0.984375 -8.03125 L 2.265625 -8.03125 Z M 2.265625 -2.890625 "/></g></g></g><g fill="#000000" fill-opacity="1"><g transform="translate(155.620026, 226.574878)"><g><path d="M 5.5 0 L 3.6875 -2.796875 L 2.390625 -2.796875 L 2.390625 0 L 1.109375 0 L 1.109375 -8.03125 L 3.359375 -8.03125 C 4.253906 -8.03125 4.972656 -7.800781 5.515625 -7.34375 C 6.054688 -6.882812 6.328125 -6.253906 6.328125 -5.453125 C 6.328125 -4.953125 6.222656 -4.488281 6.015625 -4.0625 C 5.804688 -3.644531 5.476562 -3.320312 5.03125 -3.09375 L 6.984375 0 Z M 2.390625 -4.03125 L 3.546875 -4.03125 C 4.054688 -4.03125 4.425781 -4.171875 4.65625 -4.453125 C 4.894531 -4.734375 5.015625 -5.050781 5.015625 -5.40625 C 5.015625 -5.613281 4.96875 -5.820312 4.875 -6.03125 C 4.789062 -6.238281 4.640625 -6.414062 4.421875 -6.5625 C 4.210938 -6.71875 3.929688 -6.796875 3.578125 -6.796875 L 2.390625 -6.796875 Z M 2.390625 -4.03125 "/></g></g></g><g fill="#000000" fill-opacity="1"><g transform="translate(167.423489, 226.574878)"><g/></g></g><g fill="#000000" fill-opacity="1"><g transform="translate(175.365997, 226.574878)"><g><path d="M 1.109375 -8.03125 L 3.390625 -8.03125 C 4.390625 -8.03125 5.21875 -7.832031 5.875 -7.4375 C 6.539062 -7.039062 7.023438 -6.53125 7.328125 -5.90625 C 7.628906 -5.28125 7.78125 -4.613281 7.78125 -3.90625 C 7.78125 -3.125 7.597656 -2.4375 7.234375 -1.84375 C 6.867188 -1.25 6.378906 -0.789062 5.765625 -0.46875 C 5.160156 -0.15625 4.492188 0 3.765625 0 L 1.109375 0 Z M 3.546875 -1.234375 C 4.117188 -1.234375 4.625 -1.335938 5.0625 -1.546875 C 5.5 -1.765625 5.835938 -2.082031 6.078125 -2.5 C 6.328125 -2.914062 6.453125 -3.414062 6.453125 -4 C 6.453125 -4.625 6.316406 -5.144531 6.046875 -5.5625 C 5.773438 -5.988281 5.429688 -6.300781 5.015625 -6.5 C 4.609375 -6.707031 4.179688 -6.8125 3.734375 -6.8125 L 2.390625 -6.8125 L 2.390625 -1.234375 Z M 3.546875 -1.234375 "/></g></g></g><g fill="#000000" fill-opacity="1"><g transform="translate(188.173315, 226.574878)"><g><path d="M 5.234375 -1.890625 L 2.3125 -1.890625 L 1.53125 0 L 0.265625 0 L 3.8125 -8.359375 L 3.890625 -8.359375 L 7.453125 0 L 5.96875 0 Z M 4.796875 -2.984375 L 3.796875 -5.53125 L 2.75 -2.984375 Z M 4.796875 -2.984375 "/></g></g></g><g fill="#000000" fill-opacity="1"><g transform="translate(200.296694, 226.574878)"><g><path d="M 5.90625 -8.03125 L 5.90625 -6.796875 L 3.828125 -6.796875 L 3.828125 0 L 2.546875 0 L 2.546875 -6.796875 L 0.53125 -6.796875 L 0.53125 -8.03125 Z M 5.90625 -8.03125 "/></g></g></g><g fill="#000000" fill-opacity="1"><g transform="translate(211.140437, 226.574878)"><g><path d="M 5.234375 -1.890625 L 2.3125 -1.890625 L 1.53125 0 L 0.265625 0 L 3.8125 -8.359375 L 3.890625 -8.359375 L 7.453125 0 L 5.96875 0 Z M 4.796875 -2.984375 L 3.796875 -5.53125 L 2.75 -2.984375 Z M 4.796875 -2.984375 "/></g></g></g><g fill="#000000" fill-opacity="1"><g transform="translate(223.263816, 226.574878)"><g/></g></g><g fill="#000000" fill-opacity="1"><g transform="translate(231.206328, 226.574878)"><g><path d="M 5.234375 -1.890625 L 2.3125 -1.890625 L 1.53125 0 L 0.265625 0 L 3.8125 -8.359375 L 3.890625 -8.359375 L 7.453125 0 L 5.96875 0 Z M 4.796875 -2.984375 L 3.796875 -5.53125 L 2.75 -2.984375 Z M 4.796875 -2.984375 "/></g></g></g><g fill="#000000" fill-opacity="1"><g transform="translate(243.329707, 226.574878)"><g><path d="M 3.375 -8.03125 C 4.289062 -8.03125 5.003906 -7.800781 5.515625 -7.34375 C 6.023438 -6.882812 6.28125 -6.253906 6.28125 -5.453125 C 6.28125 -4.984375 6.1875 -4.546875 6 -4.140625 C 5.820312 -3.742188 5.53125 -3.421875 5.125 -3.171875 C 4.71875 -2.921875 4.191406 -2.796875 3.546875 -2.796875 L 2.390625 -2.796875 L 2.390625 0 L 1.109375 0 L 1.109375 -8.03125 Z M 3.546875 -4.03125 C 3.898438 -4.03125 4.1875 -4.101562 4.40625 -4.25 C 4.625 -4.40625 4.78125 -4.585938 4.875 -4.796875 C 4.96875 -5.015625 5.015625 -5.222656 5.015625 -5.421875 C 5.015625 -5.765625 4.90625 -6.078125 4.6875 -6.359375 C 4.46875 -6.648438 4.097656 -6.796875 3.578125 -6.796875 L 2.390625 -6.796875 L 2.390625 -4.03125 Z M 3.546875 -4.03125 "/></g></g></g><g fill="#000000" fill-opacity="1"><g transform="translate(254.482324, 226.574878)"><g><path d="M 2.390625 -8.03125 L 2.390625 0 L 1.109375 0 L 1.109375 -8.03125 Z M 2.390625 -8.03125 "/></g></g></g><g fill="#000000" fill-opacity="1"><g transform="translate(151.196183, 249.809166)"><g><path d="M 3.265625 -2.78125 C 3.554688 -2.65625 3.785156 -2.484375 3.953125 -2.265625 C 4.128906 -2.054688 4.21875 -1.8125 4.21875 -1.53125 C 4.21875 -1.007812 4.039062 -0.625 3.6875 -0.375 C 3.34375 -0.125 2.910156 0 2.390625 0 L 0.734375 0 L 0.734375 -5.328125 L 2.1875 -5.328125 C 2.75 -5.328125 3.179688 -5.210938 3.484375 -4.984375 C 3.796875 -4.765625 3.953125 -4.4375 3.953125 -4 C 3.953125 -3.71875 3.890625 -3.472656 3.765625 -3.265625 C 3.648438 -3.066406 3.484375 -2.90625 3.265625 -2.78125 Z M 1.59375 -3.0625 L 2.328125 -3.0625 C 2.578125 -3.0625 2.765625 -3.128906 2.890625 -3.265625 C 3.015625 -3.410156 3.078125 -3.59375 3.078125 -3.8125 C 3.078125 -4.039062 3 -4.210938 2.84375 -4.328125 C 2.695312 -4.453125 2.492188 -4.515625 2.234375 -4.515625 L 1.59375 -4.515625 Z M 2.359375 -0.796875 C 2.648438 -0.796875 2.882812 -0.859375 3.0625 -0.984375 C 3.238281 -1.109375 3.328125 -1.289062 3.328125 -1.53125 C 3.328125 -1.78125 3.226562 -1.960938 3.03125 -2.078125 C 2.832031 -2.191406 2.585938 -2.25 2.296875 -2.25 L 1.59375 -2.25 L 1.59375 -0.796875 Z M 2.359375 -0.796875 "/></g></g></g><g fill="#000000" fill-opacity="1"><g transform="translate(158.741825, 249.809166)"><g><path d="M 4.984375 -5.328125 L 2.984375 -1.734375 L 2.984375 0 L 2.140625 0 L 2.140625 -1.734375 L 0.171875 -5.328125 L 1.21875 -5.328125 L 2.59375 -2.703125 L 3.9375 -5.328125 Z M 4.984375 -5.328125 "/></g></g></g><g fill="#000000" fill-opacity="1"><g transform="translate(166.829578, 249.809166)"><g/></g></g><g fill="#000000" fill-opacity="1"><g transform="translate(172.104194, 249.809166)"><g><path d="M 5.4375 -5.328125 L 5.4375 0.1875 L 5.421875 0.1875 L 1.578125 -3.546875 L 1.59375 0 L 0.734375 0 L 0.734375 -5.515625 L 0.78125 -5.515625 L 4.609375 -1.75 L 4.59375 -5.328125 Z M 5.4375 -5.328125 "/></g></g></g><g fill="#000000" fill-opacity="1"><g transform="translate(181.217568, 249.809166)"><g><path d="M 4.265625 -5.328125 L 4.265625 -4.515625 L 1.59375 -4.515625 L 1.59375 -3.09375 L 3.984375 -3.09375 L 3.984375 -2.265625 L 1.59375 -2.265625 L 1.59375 -0.828125 L 4.375 -0.828125 L 4.375 0 L 0.734375 0 L 0.734375 -5.328125 Z M 4.265625 -5.328125 "/></g></g></g><g fill="#000000" fill-opacity="1"><g transform="translate(188.968331, 249.809166)"><g><path d="M 5.078125 0.234375 L 3.8125 -2.953125 L 2.40625 0.25 L 0.265625 -5.3125 L 1.265625 -5.3125 L 2.515625 -1.75 L 3.40625 -4.015625 L 2.890625 -5.3125 L 3.734375 -5.3125 L 5.09375 -1.84375 L 6.25 -5.3125 L 7.15625 -5.3125 Z M 5.078125 0.234375 "/></g></g></g><g fill="#000000" fill-opacity="1"><g transform="translate(199.327113, 249.809166)"><g><path d="M 4.265625 -5.328125 L 4.265625 -4.515625 L 1.59375 -4.515625 L 1.59375 -3.09375 L 3.984375 -3.09375 L 3.984375 -2.265625 L 1.59375 -2.265625 L 1.59375 -0.828125 L 4.375 -0.828125 L 4.375 0 L 0.734375 0 L 0.734375 -5.328125 Z M 4.265625 -5.328125 "/></g></g></g><g fill="#000000" fill-opacity="1"><g transform="translate(207.077879, 249.809166)"><g><path d="M 3.53125 -4.25 C 3.070312 -4.488281 2.664062 -4.609375 2.3125 -4.609375 C 2.039062 -4.609375 1.828125 -4.546875 1.671875 -4.421875 C 1.523438 -4.304688 1.453125 -4.148438 1.453125 -3.953125 C 1.453125 -3.753906 1.546875 -3.585938 1.734375 -3.453125 C 1.929688 -3.316406 2.203125 -3.179688 2.546875 -3.046875 C 2.816406 -2.953125 3.046875 -2.84375 3.234375 -2.71875 C 3.421875 -2.601562 3.570312 -2.441406 3.6875 -2.234375 C 3.8125 -2.035156 3.875 -1.78125 3.875 -1.46875 C 3.875 -1.1875 3.800781 -0.929688 3.65625 -0.703125 C 3.519531 -0.472656 3.316406 -0.285156 3.046875 -0.140625 C 2.773438 -0.00390625 2.457031 0.0625 2.09375 0.0625 C 1.769531 0.0625 1.453125 0.015625 1.140625 -0.078125 C 0.828125 -0.179688 0.550781 -0.320312 0.3125 -0.5 L 0.6875 -1.171875 C 0.863281 -1.035156 1.078125 -0.921875 1.328125 -0.828125 C 1.578125 -0.742188 1.804688 -0.703125 2.015625 -0.703125 C 2.273438 -0.703125 2.5 -0.757812 2.6875 -0.875 C 2.882812 -1 2.984375 -1.191406 2.984375 -1.453125 C 2.984375 -1.660156 2.898438 -1.832031 2.734375 -1.96875 C 2.578125 -2.101562 2.351562 -2.226562 2.0625 -2.34375 C 1.757812 -2.457031 1.503906 -2.566406 1.296875 -2.671875 C 1.097656 -2.785156 0.925781 -2.941406 0.78125 -3.140625 C 0.644531 -3.335938 0.578125 -3.585938 0.578125 -3.890625 C 0.578125 -4.316406 0.722656 -4.660156 1.015625 -4.921875 C 1.304688 -5.191406 1.695312 -5.335938 2.1875 -5.359375 C 2.539062 -5.359375 2.847656 -5.316406 3.109375 -5.234375 C 3.378906 -5.160156 3.628906 -5.050781 3.859375 -4.90625 Z M 3.53125 -4.25 "/></g></g></g><g fill="#000000" fill-opacity="1"><g transform="translate(214.27188, 249.809166)"><g><path d="M 1.59375 -5.328125 L 1.59375 0 L 0.734375 0 L 0.734375 -5.328125 Z M 1.59375 -5.328125 "/></g></g></g><g fill="#000000" fill-opacity="1"><g transform="translate(219.524521, 249.809166)"><g><path d="M 3.53125 -4.25 C 3.070312 -4.488281 2.664062 -4.609375 2.3125 -4.609375 C 2.039062 -4.609375 1.828125 -4.546875 1.671875 -4.421875 C 1.523438 -4.304688 1.453125 -4.148438 1.453125 -3.953125 C 1.453125 -3.753906 1.546875 -3.585938 1.734375 -3.453125 C 1.929688 -3.316406 2.203125 -3.179688 2.546875 -3.046875 C 2.816406 -2.953125 3.046875 -2.84375 3.234375 -2.71875 C 3.421875 -2.601562 3.570312 -2.441406 3.6875 -2.234375 C 3.8125 -2.035156 3.875 -1.78125 3.875 -1.46875 C 3.875 -1.1875 3.800781 -0.929688 3.65625 -0.703125 C 3.519531 -0.472656 3.316406 -0.285156 3.046875 -0.140625 C 2.773438 -0.00390625 2.457031 0.0625 2.09375 0.0625 C 1.769531 0.0625 1.453125 0.015625 1.140625 -0.078125 C 0.828125 -0.179688 0.550781 -0.320312 0.3125 -0.5 L 0.6875 -1.171875 C 0.863281 -1.035156 1.078125 -0.921875 1.328125 -0.828125 C 1.578125 -0.742188 1.804688 -0.703125 2.015625 -0.703125 C 2.273438 -0.703125 2.5 -0.757812 2.6875 -0.875 C 2.882812 -1 2.984375 -1.191406 2.984375 -1.453125 C 2.984375 -1.660156 2.898438 -1.832031 2.734375 -1.96875 C 2.578125 -2.101562 2.351562 -2.226562 2.0625 -2.34375 C 1.757812 -2.457031 1.503906 -2.566406 1.296875 -2.671875 C 1.097656 -2.785156 0.925781 -2.941406 0.78125 -3.140625 C 0.644531 -3.335938 0.578125 -3.585938 0.578125 -3.890625 C 0.578125 -4.316406 0.722656 -4.660156 1.015625 -4.921875 C 1.304688 -5.191406 1.695312 -5.335938 2.1875 -5.359375 C 2.539062 -5.359375 2.847656 -5.316406 3.109375 -5.234375 C 3.378906 -5.160156 3.628906 -5.050781 3.859375 -4.90625 Z M 3.53125 -4.25 "/></g></g></g><g fill="#3d3b3a" fill-opacity="1"><g transform="translate(167.496161, 148.606408)"><g><path d="M 12.828125 -2.21875 C 12.992188 -2.144531 13.078125 -1.878906 13.078125 -1.421875 C 13.078125 -0.984375 12.992188 -0.800781 12.828125 -0.875 L 1.25 -6 C 1.132812 -6.070312 1.078125 -6.269531 1.078125 -6.59375 C 1.078125 -6.9375 1.132812 -7.132812 1.25 -7.1875 L 12.828125 -12.28125 C 12.898438 -12.320312 12.957031 -12.289062 13 -12.1875 C 13.050781 -12.082031 13.078125 -11.941406 13.078125 -11.765625 C 13.078125 -11.316406 12.992188 -11.050781 12.828125 -10.96875 L 2.640625 -6.59375 Z M 12.828125 -2.21875 "/></g></g></g><g fill="#3d3b3a" fill-opacity="1"><g transform="translate(181.615809, 148.606408)"><g><path d="M 2.15625 5.65625 C 2.125 5.75 1.898438 5.726562 1.484375 5.59375 C 1.078125 5.46875 0.882812 5.359375 0.90625 5.265625 L 9.640625 -25.328125 C 9.691406 -25.441406 9.914062 -25.425781 10.3125 -25.28125 C 10.71875 -25.144531 10.898438 -25.019531 10.859375 -24.90625 Z M 2.15625 5.65625 "/></g></g></g><g fill="#3d3b3a" fill-opacity="1"><g transform="translate(193.376401, 148.606408)"><g><path d="M 12.875 -7.140625 C 12.988281 -7.097656 13.046875 -6.90625 13.046875 -6.5625 C 13.046875 -6.238281 12.988281 -6.039062 12.875 -5.96875 L 1.28125 -0.875 C 1.207031 -0.84375 1.148438 -0.878906 1.109375 -0.984375 C 1.066406 -1.085938 1.046875 -1.222656 1.046875 -1.390625 C 1.046875 -1.578125 1.066406 -1.75 1.109375 -1.90625 C 1.148438 -2.070312 1.207031 -2.164062 1.28125 -2.1875 L 11.484375 -6.5625 L 1.28125 -10.921875 C 1.207031 -10.953125 1.148438 -11.046875 1.109375 -11.203125 C 1.066406 -11.367188 1.046875 -11.539062 1.046875 -11.71875 C 1.046875 -11.90625 1.066406 -12.054688 1.109375 -12.171875 C 1.148438 -12.285156 1.207031 -12.320312 1.28125 -12.28125 Z M 12.875 -7.140625 "/></g></g></g></svg>